<svg width="20" height="20" viewBox="0 0 20 20" fill="none" xmlns="http://www.w3.org/2000/svg">
<circle cx="10" cy="10" r="10" fill="#8A8A8A"/>
<path d="M13.0801 16.2441C13.0671 16.2441 13.0508 16.2409 13.0312 16.2344C13.0182 16.2279 13.002 16.2246 12.9824 16.2246C12.4551 16.1204 11.9538 16.0456 11.4785 16C11.0033 15.9479 10.5312 15.9219 10.0625 15.9219C9.58724 15.9219 9.11523 15.9479 8.64648 16C8.17773 16.0456 7.68294 16.1204 7.16211 16.2246C7.14258 16.2246 7.1263 16.2279 7.11328 16.2344C7.10026 16.2409 7.08398 16.2441 7.06445 16.2441C6.91471 16.2441 6.79102 16.1888 6.69336 16.0781C6.60221 15.9674 6.55664 15.847 6.55664 15.7168C6.55664 15.5996 6.59245 15.4922 6.66406 15.3945C6.74219 15.2969 6.83984 15.2383 6.95703 15.2188C7.1849 15.1667 7.41276 15.1276 7.64062 15.1016C7.875 15.069 8.10286 15.0365 8.32422 15.0039V7.52344C7.91406 7.50391 7.56901 7.47786 7.28906 7.44531C7.00911 7.41276 6.85286 7.39648 6.82031 7.39648C6.6901 7.37695 6.58268 7.31836 6.49805 7.2207C6.41992 7.12305 6.38086 7.00911 6.38086 6.87891C6.38086 6.71615 6.43945 6.59245 6.55664 6.50781C6.67383 6.42318 6.78776 6.38086 6.89844 6.38086H6.95703C6.96354 6.38086 7.03841 6.39062 7.18164 6.41016C7.32487 6.42318 7.51042 6.43945 7.73828 6.45898C7.97266 6.47852 8.23633 6.49805 8.5293 6.51758C8.82227 6.5306 9.125 6.53711 9.4375 6.53711C9.75 6.53711 10.056 6.52734 10.3555 6.50781C10.6549 6.48177 10.9284 6.43945 11.1758 6.38086H11.2832C11.4329 6.38086 11.5566 6.43294 11.6543 6.53711C11.752 6.63477 11.8008 6.7487 11.8008 6.87891L11.7812 15.0039C12.0091 15.0365 12.237 15.069 12.4648 15.1016C12.6992 15.1276 12.9368 15.1667 13.1777 15.2188C13.3014 15.2383 13.4023 15.2969 13.4805 15.3945C13.5586 15.4922 13.5977 15.5996 13.5977 15.7168C13.5977 15.8665 13.5423 15.9902 13.4316 16.0879C13.321 16.1921 13.2038 16.2441 13.0801 16.2441ZM11.6641 3.40234C11.6641 3.64323 11.6185 3.87109 11.5273 4.08594C11.4362 4.29427 11.3092 4.47656 11.1465 4.63281C10.9902 4.78906 10.8047 4.91276 10.5898 5.00391C10.3815 5.09505 10.1569 5.14062 9.91602 5.14062C9.67513 5.14062 9.44727 5.09505 9.23242 5.00391C9.02409 4.91276 8.8418 4.78906 8.68555 4.63281C8.5293 4.47656 8.4056 4.29427 8.31445 4.08594C8.22331 3.87109 8.17773 3.64323 8.17773 3.40234C8.17773 3.16146 8.22331 2.93685 8.31445 2.72852C8.4056 2.51367 8.5293 2.32812 8.68555 2.17188C8.8418 2.01562 9.02409 1.89193 9.23242 1.80078C9.44727 1.70964 9.67513 1.66406 9.91602 1.66406C10.1569 1.66406 10.3815 1.70964 10.5898 1.80078C10.8047 1.89193 10.9902 2.01562 11.1465 2.17188C11.3092 2.32812 11.4362 2.51367 11.5273 2.72852C11.6185 2.93685 11.6641 3.16146 11.6641 3.40234Z" fill="white"/>
</svg>
