<svg width="30" height="36" viewBox="0 0 30 36" fill="none" xmlns="http://www.w3.org/2000/svg">
<g clip-path="url(#clip0)">
<path d="M3.38168 20.6606C2.6244 19.473 2.19584 18.567 1.41978 16.4789C0.270083 11.9548 1.59313 7.88235 4.03565 5.22036C8.43965 0.420626 16.7154 -0.517653 22.3468 3.612C24.2515 5.0088 25.6166 6.82872 26.2706 9.72377C26.9246 12.6188 26.2706 13.2622 26.5976 14.2272C26.9246 15.1922 28.2944 16.8237 28.8865 17.7656C29.4785 18.7075 27.5785 18.4089 27.2515 19.3739C26.8904 20.4397 27.3547 21.8889 26.8269 22.8827C26.6409 23.2326 26.5074 23.6669 26.5976 24.199C26.5976 24.199 27.2515 26.7724 25.6166 27.4157L23.6547 28.0591C23.6547 28.0591 18.1919 30.5238 14.8261 34.8142C14.5313 35.0653 14.3139 35.0585 13.8452 34.8142C13.8452 34.8142 5.99755 29.9891 5.34358 29.3458C4.68961 28.7024 4.68961 28.0591 4.68961 28.0591C4.71992 25.1888 4.68961 23.234 3.38168 20.6606Z" fill="#8A8A8A" stroke="#8A8A8A" stroke-width="0.5"/>
<path d="M10.25 20.375C11.6997 20.375 12.875 19.1997 12.875 17.75C12.875 16.3003 11.6997 15.125 10.25 15.125C8.80025 15.125 7.625 16.3003 7.625 17.75C7.625 19.1997 8.80025 20.375 10.25 20.375Z" fill="white"/>
<path d="M7.625 12.5C9.71358 12.5 11.7166 13.3297 13.1935 14.8065C14.6703 16.2834 15.5 18.2864 15.5 20.375H18.125C18.125 17.5902 17.0188 14.9195 15.0496 12.9504C13.0805 10.9812 10.4098 9.875 7.625 9.875V12.5Z" fill="white"/>
<path d="M7.625 7.25C9.3486 7.25 11.0553 7.58949 12.6477 8.24908C14.2401 8.90867 15.687 9.87545 16.9058 11.0942C18.1245 12.313 19.0913 13.7599 19.7509 15.3523C20.4105 16.9447 20.75 18.6514 20.75 20.375H23.375C23.375 16.1978 21.7156 12.1918 18.7619 9.23807C15.8082 6.28437 11.8022 4.625 7.625 4.625V7.25Z" fill="white"/>
</g>
<defs>
<clipPath id="clip0">
<rect width="30" height="36" fill="white"/>
</clipPath>
</defs>
</svg>
