<svg width="30" height="36" viewBox="0 0 30 36" fill="none" xmlns="http://www.w3.org/2000/svg">
<g clip-path="url(#clip0)">
<path d="M3.38168 20.6606C2.6244 19.473 2.19584 18.567 1.41978 16.4789C0.270083 11.9548 1.59313 7.88235 4.03565 5.22036C8.43965 0.420626 16.7154 -0.517653 22.3468 3.612C24.2515 5.0088 25.6166 6.82872 26.2706 9.72377C26.9246 12.6188 26.2706 13.2622 26.5976 14.2272C26.9246 15.1922 28.2944 16.8237 28.8865 17.7656C29.4785 18.7075 27.5785 18.4089 27.2515 19.3739C26.8904 20.4397 27.3547 21.8889 26.8269 22.8827C26.6409 23.2326 26.5074 23.6669 26.5976 24.199C26.5976 24.199 27.2515 26.7724 25.6166 27.4157L23.6547 28.0591C23.6547 28.0591 18.1919 30.5238 14.8261 34.8142C14.5313 35.0653 14.3139 35.0585 13.8452 34.8142C13.8452 34.8142 5.99755 29.9891 5.34358 29.3458C4.68961 28.7024 4.68961 28.0591 4.68961 28.0591C4.71992 25.1888 4.68961 23.234 3.38168 20.6606Z" fill="#8A8A8A" stroke="#8A8A8A" stroke-width="0.5"/>
<path d="M13.8 4.76C15.1733 4.76 16.3933 5.06667 17.46 5.68C18.5267 6.28 19.3533 7.12667 19.94 8.22C20.54 9.31333 20.84 10.5533 20.84 11.94C20.84 13.3267 20.54 14.5667 19.94 15.66C19.3533 16.7533 18.5267 17.6067 17.46 18.22C16.3933 18.8333 15.1733 19.14 13.8 19.14C12.4267 19.14 11.2067 18.8333 10.14 18.22C9.07333 17.6067 8.24 16.7533 7.64 15.66C7.05333 14.5667 6.76 13.3267 6.76 11.94C6.76 10.5533 7.05333 9.31333 7.64 8.22C8.24 7.12667 9.07333 6.28 10.14 5.68C11.2067 5.06667 12.4267 4.76 13.8 4.76ZM13.8 5.88C12.6133 5.88 11.58 6.12667 10.7 6.62C9.82 7.11333 9.14 7.82 8.66 8.74C8.19333 9.64667 7.96 10.7133 7.96 11.94C7.96 13.1533 8.19333 14.22 8.66 15.14C9.14 16.06 9.82 16.7733 10.7 17.28C11.58 17.7733 12.6133 18.02 13.8 18.02C14.9867 18.02 16.02 17.7733 16.9 17.28C17.78 16.7733 18.4533 16.06 18.92 15.14C19.4 14.22 19.64 13.1533 19.64 11.94C19.64 10.7133 19.4 9.64667 18.92 8.74C18.4533 7.82 17.78 7.11333 16.9 6.62C16.02 6.12667 14.9867 5.88 13.8 5.88ZM13.82 7.44C12.9667 7.44 12.2 7.62667 11.52 8C10.8533 8.36 10.3267 8.88 9.94 9.56C9.56667 10.24 9.38 11.0333 9.38 11.94C9.38 12.8467 9.56667 13.64 9.94 14.32C10.3267 15 10.8533 15.5267 11.52 15.9C12.2 16.26 12.9667 16.44 13.82 16.44C14.8733 16.44 15.78 16.14 16.54 15.54C17.3 14.94 17.7867 14.1467 18 13.16H15.06C14.8333 13.8133 14.3867 14.14 13.72 14.14C13.2267 14.14 12.84 13.9533 12.56 13.58C12.28 13.2067 12.14 12.66 12.14 11.94C12.14 11.22 12.28 10.6733 12.56 10.3C12.84 9.92667 13.2267 9.74 13.72 9.74C14.0533 9.74 14.3333 9.82667 14.56 10C14.8 10.1733 14.9667 10.4133 15.06 10.72H18C17.7867 9.70667 17.3 8.90667 16.54 8.32C15.7933 7.73333 14.8867 7.44 13.82 7.44Z" fill="white"/>
</g>
<defs>
<clipPath id="clip0">
<rect width="30" height="36" fill="white"/>
</clipPath>
</defs>
</svg>
