<svg width="30" height="36" viewBox="0 0 30 36" fill="none" xmlns="http://www.w3.org/2000/svg">
<path d="M3.38168 20.6606C2.6244 19.473 2.19584 18.567 1.41978 16.4789C0.270083 11.9548 1.59313 7.88235 4.03565 5.22036C8.43965 0.420626 16.7154 -0.517653 22.3468 3.612C24.2515 5.0088 25.6166 6.82872 26.2706 9.72377C26.9246 12.6188 26.2706 13.2622 26.5976 14.2272C26.9246 15.1922 28.2944 16.8237 28.8865 17.7656C29.4785 18.7075 27.5785 18.4089 27.2515 19.3739C26.8904 20.4397 27.3547 21.8889 26.8269 22.8827C26.6409 23.2326 26.5074 23.6669 26.5976 24.199C26.5976 24.199 27.2515 26.7724 25.6166 27.4157L23.6547 28.0591C23.6547 28.0591 18.1919 30.5238 14.8261 34.8142C14.5313 35.0653 14.3139 35.0585 13.8452 34.8142C13.8452 34.8142 5.99755 29.9891 5.34358 29.3458C4.68961 28.7024 4.68961 28.0591 4.68961 28.0591C4.71992 25.1888 4.68961 23.234 3.38168 20.6606Z" fill="#8A8A8A" stroke="#8A8A8A" stroke-width="0.5"/>
<circle cx="13.5625" cy="12.5625" r="7.6875" fill="white" stroke="white" stroke-width="1.5"/>
<path d="M15.7061 17.1709C15.6969 17.1709 15.6855 17.1686 15.6719 17.1641C15.6628 17.1595 15.6514 17.1572 15.6377 17.1572C15.2686 17.0843 14.9176 17.0319 14.585 17C14.2523 16.9635 13.9219 16.9453 13.5938 16.9453C13.2611 16.9453 12.9307 16.9635 12.6025 17C12.2744 17.0319 11.9281 17.0843 11.5635 17.1572C11.5498 17.1572 11.5384 17.1595 11.5293 17.1641C11.5202 17.1686 11.5088 17.1709 11.4951 17.1709C11.3903 17.1709 11.3037 17.1322 11.2354 17.0547C11.1715 16.9772 11.1396 16.8929 11.1396 16.8018C11.1396 16.7197 11.1647 16.6445 11.2148 16.5762C11.2695 16.5078 11.3379 16.4668 11.4199 16.4531C11.5794 16.4167 11.7389 16.3893 11.8984 16.3711C12.0625 16.3483 12.222 16.3255 12.377 16.3027V11.0664C12.0898 11.0527 11.8483 11.0345 11.6523 11.0117C11.4564 10.9889 11.347 10.9775 11.3242 10.9775C11.2331 10.9639 11.1579 10.9229 11.0986 10.8545C11.0439 10.7861 11.0166 10.7064 11.0166 10.6152C11.0166 10.5013 11.0576 10.4147 11.1396 10.3555C11.2217 10.2962 11.3014 10.2666 11.3789 10.2666H11.4199C11.4245 10.2666 11.4769 10.2734 11.5771 10.2871C11.6774 10.2962 11.8073 10.3076 11.9668 10.3213C12.1309 10.335 12.3154 10.3486 12.5205 10.3623C12.7256 10.3714 12.9375 10.376 13.1562 10.376C13.375 10.376 13.5892 10.3691 13.7988 10.3555C14.0085 10.3372 14.1999 10.3076 14.373 10.2666H14.4482C14.5531 10.2666 14.6396 10.3031 14.708 10.376C14.7764 10.4443 14.8105 10.5241 14.8105 10.6152L14.7969 16.3027C14.9564 16.3255 15.1159 16.3483 15.2754 16.3711C15.4395 16.3893 15.6058 16.4167 15.7744 16.4531C15.861 16.4668 15.9316 16.5078 15.9863 16.5762C16.041 16.6445 16.0684 16.7197 16.0684 16.8018C16.0684 16.9066 16.0296 16.9932 15.9521 17.0615C15.8747 17.1344 15.7926 17.1709 15.7061 17.1709ZM14.7148 8.18164C14.7148 8.35026 14.6829 8.50977 14.6191 8.66016C14.5553 8.80599 14.4665 8.93359 14.3525 9.04297C14.2432 9.15234 14.1133 9.23893 13.9629 9.30273C13.8171 9.36654 13.6598 9.39844 13.4912 9.39844C13.3226 9.39844 13.1631 9.36654 13.0127 9.30273C12.8669 9.23893 12.7393 9.15234 12.6299 9.04297C12.5205 8.93359 12.4339 8.80599 12.3701 8.66016C12.3063 8.50977 12.2744 8.35026 12.2744 8.18164C12.2744 8.01302 12.3063 7.85579 12.3701 7.70996C12.4339 7.55957 12.5205 7.42969 12.6299 7.32031C12.7393 7.21094 12.8669 7.12435 13.0127 7.06055C13.1631 6.99674 13.3226 6.96484 13.4912 6.96484C13.6598 6.96484 13.8171 6.99674 13.9629 7.06055C14.1133 7.12435 14.2432 7.21094 14.3525 7.32031C14.4665 7.42969 14.5553 7.55957 14.6191 7.70996C14.6829 7.85579 14.7148 8.01302 14.7148 8.18164Z" fill="#8A8A8A"/>
</svg>
