<svg width="15" height="15" viewBox="0 0 15 15" fill="none" xmlns="http://www.w3.org/2000/svg">
<path d="M14.9325 11.9565L14.8579 11.7315C14.681 11.2058 14.1014 10.6576 13.569 10.5131L11.5983 9.9747C11.0639 9.82928 10.3015 10.0248 9.91054 10.4159L9.19735 11.1292C6.60534 10.4287 4.57279 8.39572 3.87334 5.80373L4.58656 5.09037C4.97757 4.6993 5.17304 3.93783 5.02764 3.40332L4.49027 1.43131C4.34488 0.897767 3.79572 0.31807 3.27114 0.143158L3.04618 0.0675086C2.5206 -0.107403 1.77104 0.0694895 1.38006 0.460534L0.313179 1.52859C0.122581 1.71822 0.000765536 2.26059 0.000765536 2.26257C-0.0365493 5.65045 1.29163 8.91451 3.68764 11.311C6.07777 13.7016 9.32897 15.028 12.7064 14.9996C12.7241 14.9996 13.2821 14.8797 13.4727 14.69L14.5396 13.623C14.9305 13.2319 15.1074 12.4822 14.9325 11.9565Z" fill="#8A8A8A"/>
</svg>
