<svg width="30" height="36" viewBox="0 0 30 36" fill="none" xmlns="http://www.w3.org/2000/svg">
<g clip-path="url(#clip0)">
<path d="M3.38168 20.6606C2.6244 19.473 2.19584 18.567 1.41978 16.4789C0.270083 11.9548 1.59313 7.88235 4.03565 5.22036C8.43965 0.420626 16.7154 -0.517653 22.3468 3.612C24.2515 5.0088 25.6166 6.82872 26.2706 9.72377C26.9246 12.6188 26.2706 13.2622 26.5976 14.2272C26.9246 15.1922 28.2944 16.8237 28.8865 17.7656C29.4785 18.7075 27.5785 18.4089 27.2515 19.3739C26.8904 20.4397 27.3547 21.8889 26.8269 22.8827C26.6409 23.2326 26.5074 23.6669 26.5976 24.199C26.5976 24.199 27.2515 26.7724 25.6166 27.4157L23.6547 28.0591C23.6547 28.0591 18.1919 30.5238 14.8261 34.8142C14.5313 35.0653 14.3139 35.0585 13.8452 34.8142C13.8452 34.8142 5.99755 29.9891 5.34358 29.3458C4.68961 28.7024 4.68961 28.0591 4.68961 28.0591C4.71992 25.1888 4.68961 23.234 3.38168 20.6606Z" fill="#8A8A8A" stroke="#8A8A8A" stroke-width="0.5"/>
<path d="M13.3196 2C14.3384 4.84199 13.8086 6.39024 12.6675 7.62036C11.4245 8.97773 9.48877 9.99576 8.12354 11.9894C6.31002 14.6405 6.00437 20.473 12.5453 22C9.79442 20.4942 9.2035 16.1251 12.1785 13.3892C11.4042 16.0403 12.8305 17.737 14.6033 17.122C16.3353 16.5069 17.4764 17.8006 17.4356 19.2853C17.4153 20.3033 17.0281 21.1729 16.0297 21.6607C20.2884 20.8759 22 17.2068 22 14.4072C22 10.7169 18.8416 10.2078 20.431 7.11135C18.536 7.28102 17.8839 8.57476 18.0673 10.6957C18.1896 12.0954 16.7836 13.0498 15.7444 12.4136C14.9089 11.8834 14.9293 10.8653 15.6629 10.1018C17.2319 8.48993 17.8432 4.77837 13.3196 2Z" fill="white"/>
</g>
<defs>
<clipPath id="clip0">
<rect width="30" height="36" fill="white"/>
</clipPath>
</defs>
</svg>
