<svg width="20" height="20" viewBox="0 0 20 20" fill="none" xmlns="http://www.w3.org/2000/svg">
<circle cx="10" cy="10" r="10" fill="#8A8A8A"/>
<path d="M6.83333 15C7.84586 15 8.66667 14.1792 8.66667 13.1667C8.66667 12.1541 7.84586 11.3333 6.83333 11.3333C5.82081 11.3333 5 12.1541 5 13.1667C5 14.1792 5.82081 15 6.83333 15Z" fill="white"/>
<path d="M5 9.5C6.45869 9.5 7.85764 10.0795 8.88909 11.1109C9.92054 12.1424 10.5 13.5413 10.5 15H12.3333C12.3333 13.0551 11.5607 11.1898 10.1854 9.81455C8.81018 8.43928 6.94492 7.66667 5 7.66667V9.5Z" fill="white"/>
<path d="M5 5.83333C6.20378 5.83333 7.39578 6.07044 8.50793 6.5311C9.62008 6.99177 10.6306 7.66698 11.4818 8.51819C12.333 9.36939 13.0082 10.3799 13.4689 11.4921C13.9296 12.6042 14.1667 13.7962 14.1667 15H16C16 12.0826 14.8411 9.28473 12.7782 7.22183C10.7153 5.15893 7.91738 4 5 4V5.83333Z" fill="white"/>
</svg>
