<svg width="20" height="20" viewBox="0 0 20 20" fill="none" xmlns="http://www.w3.org/2000/svg">
<circle cx="10" cy="10" r="10" fill="#8A8A8A"/>
<g clip-path="url(#clip0)">
<path d="M17 5.65825C16.4849 5.88692 15.9313 6.04092 15.3503 6.11033C15.9436 5.75508 16.3992 5.19217 16.6132 4.52133C16.0585 4.85033 15.4437 5.0895 14.7892 5.21842C14.2659 4.66017 13.5187 4.31133 12.6927 4.31133C10.8382 4.31133 9.47558 6.0415 9.89442 7.83758C7.508 7.718 5.39167 6.57467 3.97475 4.83692C3.22225 6.12783 3.5845 7.81658 4.86317 8.67175C4.393 8.65658 3.94967 8.52767 3.56292 8.31242C3.53142 9.643 4.48517 10.8878 5.8665 11.1649C5.46225 11.2746 5.0195 11.3003 4.56917 11.2139C4.93433 12.3549 5.99483 13.185 7.2525 13.2083C6.045 14.1551 4.52367 14.578 3 14.3983C4.27108 15.2133 5.78133 15.6887 7.403 15.6887C12.7358 15.6887 15.7487 11.1848 15.5667 7.14517C16.1279 6.73975 16.615 6.234 17 5.65825V5.65825Z" fill="white"/>
</g>
<defs>
<clipPath id="clip0">
<rect x="3" y="3" width="14" height="14" fill="white"/>
</clipPath>
</defs>
</svg>
