<svg width="20" height="20" viewBox="0 0 20 20" fill="none" xmlns="http://www.w3.org/2000/svg">
<circle cx="10" cy="10" r="10" fill="#8A8A8A"/>
<path d="M10.007 2.76C11.3804 2.76 12.6004 3.06667 13.667 3.68C14.7337 4.28 15.5604 5.12667 16.147 6.22C16.747 7.31333 17.047 8.55333 17.047 9.94C17.047 11.3267 16.747 12.5667 16.147 13.66C15.5604 14.7533 14.7337 15.6067 13.667 16.22C12.6004 16.8333 11.3804 17.14 10.007 17.14C8.6337 17.14 7.4137 16.8333 6.34703 16.22C5.28036 15.6067 4.44703 14.7533 3.84703 13.66C3.26036 12.5667 2.96703 11.3267 2.96703 9.94C2.96703 8.55333 3.26036 7.31333 3.84703 6.22C4.44703 5.12667 5.28036 4.28 6.34703 3.68C7.4137 3.06667 8.6337 2.76 10.007 2.76ZM10.007 3.88C8.82037 3.88 7.78703 4.12667 6.90703 4.62C6.02703 5.11333 5.34703 5.82 4.86703 6.74C4.40036 7.64667 4.16703 8.71333 4.16703 9.94C4.16703 11.1533 4.40036 12.22 4.86703 13.14C5.34703 14.06 6.02703 14.7733 6.90703 15.28C7.78703 15.7733 8.82037 16.02 10.007 16.02C11.1937 16.02 12.227 15.7733 13.107 15.28C13.987 14.7733 14.6604 14.06 15.127 13.14C15.607 12.22 15.847 11.1533 15.847 9.94C15.847 8.71333 15.607 7.64667 15.127 6.74C14.6604 5.82 13.987 5.11333 13.107 4.62C12.227 4.12667 11.1937 3.88 10.007 3.88ZM10.027 5.44C9.1737 5.44 8.40703 5.62667 7.72703 6C7.06036 6.36 6.5337 6.88 6.14703 7.56C5.7737 8.24 5.58703 9.03333 5.58703 9.94C5.58703 10.8467 5.7737 11.64 6.14703 12.32C6.5337 13 7.06036 13.5267 7.72703 13.9C8.40703 14.26 9.1737 14.44 10.027 14.44C11.0804 14.44 11.987 14.14 12.747 13.54C13.507 12.94 13.9937 12.1467 14.207 11.16H11.267C11.0404 11.8133 10.5937 12.14 9.92703 12.14C9.4337 12.14 9.04703 11.9533 8.76703 11.58C8.48703 11.2067 8.34703 10.66 8.34703 9.94C8.34703 9.22 8.48703 8.67333 8.76703 8.3C9.04703 7.92667 9.4337 7.74 9.92703 7.74C10.2604 7.74 10.5404 7.82667 10.767 8C11.007 8.17333 11.1737 8.41333 11.267 8.72H14.207C13.9937 7.70667 13.507 6.90667 12.747 6.32C12.0004 5.73333 11.0937 5.44 10.027 5.44Z" fill="white"/>
</svg>
