<svg width="30" height="36" viewBox="0 0 30 36" fill="none" xmlns="http://www.w3.org/2000/svg">
<path d="M3.38168 20.6606C2.6244 19.473 2.19584 18.567 1.41978 16.4789C0.270083 11.9548 1.59313 7.88235 4.03565 5.22036C8.43965 0.420626 16.7154 -0.517653 22.3468 3.612C24.2515 5.0088 25.6166 6.82872 26.2706 9.72377C26.9246 12.6188 26.2706 13.2622 26.5976 14.2272C26.9246 15.1922 28.2944 16.8237 28.8865 17.7656C29.4785 18.7075 27.5785 18.4089 27.2515 19.3739C26.8904 20.4397 27.3547 21.8889 26.8269 22.8827C26.6409 23.2326 26.5074 23.6669 26.5976 24.199C26.5976 24.199 27.2515 26.7724 25.6166 27.4157L23.6547 28.0591C23.6547 28.0591 18.1919 30.5238 14.8261 34.8142C14.5313 35.0653 14.3139 35.0585 13.8452 34.8142C13.8452 34.8142 5.99755 29.9891 5.34358 29.3458C4.68961 28.7024 4.68961 28.0591 4.68961 28.0591C4.71992 25.1888 4.68961 23.234 3.38168 20.6606Z" fill="#8A8A8A" stroke="#8A8A8A" stroke-width="0.5"/>
<circle cx="9.22538" cy="14.6619" r="2.75" fill="white" stroke="#8A8A8A" stroke-width="0.5"/>
<rect x="6.47538" y="18.25" width="5.5" height="6.77781" rx="1.75" fill="white" stroke="#8A8A8A" stroke-width="0.5"/>
<rect x="10.7719" y="3.66271" width="10.8733" height="6.51078" rx="2" fill="white"/>
<path d="M12.995 12.0658V9.33764C12.995 9.19957 13.1069 9.08764 13.245 9.08764H16.2885C16.5179 9.08764 16.6262 9.3707 16.4554 9.52379L13.4119 12.252C13.2509 12.3963 12.995 12.282 12.995 12.0658Z" fill="white" stroke="white"/>
</svg>
