<svg width="30" height="36" viewBox="0 0 30 36" fill="none" xmlns="http://www.w3.org/2000/svg">
<path d="M3.38168 20.6606C2.6244 19.473 2.19584 18.567 1.41978 16.4789C0.270083 11.9548 1.59313 7.88235 4.03565 5.22036C8.43965 0.420626 16.7154 -0.517653 22.3468 3.612C24.2515 5.0088 25.6166 6.82872 26.2706 9.72377C26.9246 12.6188 26.2706 13.2622 26.5976 14.2272C26.9246 15.1922 28.2944 16.8237 28.8865 17.7656C29.4785 18.7075 27.5785 18.4089 27.2515 19.3739C26.8904 20.4397 27.3547 21.8889 26.8269 22.8827C26.6409 23.2326 26.5074 23.6669 26.5976 24.199C26.5976 24.199 27.2515 26.7724 25.6166 27.4157L23.6547 28.0591C23.6547 28.0591 18.1919 30.5238 14.8261 34.8142C14.5313 35.0653 14.3139 35.0585 13.8452 34.8142C13.8452 34.8142 5.99755 29.9891 5.34358 29.3458C4.68961 28.7024 4.68961 28.0591 4.68961 28.0591C4.71992 25.1888 4.68961 23.234 3.38168 20.6606Z" fill="#8A8A8A" stroke="#8A8A8A" stroke-width="0.5"/>
<path d="M19.2179 4.25468L16.5091 6.96349C16.2153 8.32041 18.1828 10.3109 19.5563 10.0106L22.2651 7.30254C22.3886 7.72204 22.4504 8.15591 22.4504 8.58978C22.4504 9.74054 22.0144 10.8899 21.1359 11.7691C20.1654 12.7396 18.8631 13.1756 17.5938 13.0772C16.9236 13.0254 16.2634 13.2704 15.7879 13.7459L8.84744 20.6864C8.43225 21.1016 7.88704 21.3099 7.34111 21.3099C6.14797 21.3099 5.18541 20.3301 5.21055 19.1334C5.22205 18.604 5.43036 18.0774 5.83406 17.673L12.7745 10.7318C13.2501 10.257 13.4943 9.59616 13.4433 8.92596C13.3449 7.65668 13.7816 6.35435 14.7507 5.38461C15.6306 4.50538 16.7799 4.07007 17.9314 4.07007C18.3646 4.07007 18.7984 4.13185 19.2179 4.25468V4.25468ZM6.64721 19.1549C6.64721 19.5522 6.9683 19.8733 7.36553 19.8733C7.76277 19.8733 8.08386 19.5514 8.08386 19.1549C8.08386 18.7584 7.76277 18.4366 7.36553 18.4366C6.9683 18.4366 6.64721 18.7577 6.64721 19.1549Z" fill="white"/>
</svg>
