<svg width="30" height="36" viewBox="0 0 30 36" fill="none" xmlns="http://www.w3.org/2000/svg">
<path d="M3.38168 20.6606C2.6244 19.473 2.19584 18.567 1.41978 16.4789C0.270083 11.9548 1.59313 7.88235 4.03565 5.22036C8.43965 0.420626 16.7154 -0.517653 22.3468 3.612C24.2515 5.0088 25.6166 6.82872 26.2706 9.72377C26.9246 12.6188 26.2706 13.2622 26.5976 14.2272C26.9246 15.1922 28.2944 16.8237 28.8865 17.7656C29.4785 18.7075 27.5785 18.4089 27.2515 19.3739C26.8904 20.4397 27.3547 21.8889 26.8269 22.8827C26.6409 23.2326 26.5074 23.6669 26.5976 24.199C26.5976 24.199 27.2515 26.7724 25.6166 27.4157L23.6547 28.0591C23.6547 28.0591 18.1919 30.5238 14.8261 34.8142C14.5313 35.0653 14.3139 35.0585 13.8452 34.8142C13.8452 34.8142 5.99755 29.9891 5.34358 29.3458C4.68961 28.7024 4.68961 28.0591 4.68961 28.0591C4.71992 25.1888 4.68961 23.234 3.38168 20.6606Z" fill="#8A8A8A" stroke="#8A8A8A" stroke-width="0.5"/>
<rect x="3.1134" y="8.30008" width="19.164" height="9.38808" transform="rotate(-9.01553 3.1134 8.30008)" stroke="white" stroke-linecap="round" stroke-linejoin="round"/>
<path d="M6.48982 12.5502L6.83464 12.4987C7.15692 12.4507 7.38866 12.3516 7.52985 12.2015C7.6707 12.0492 7.72298 11.8513 7.68668 11.6079C7.65004 11.3623 7.55537 11.1909 7.40266 11.0939C7.25222 10.9965 7.03388 10.9692 6.74766 11.0119L6.271 11.083L6.48982 12.5502ZM8.73925 11.4129C8.81858 11.9448 8.71248 12.3765 8.42094 12.7079C8.13166 13.0391 7.68052 13.2503 7.06751 13.3418L6.61789 13.4088L6.88008 15.1667L5.8321 15.323L5.09495 10.3806L6.67368 10.1452C7.27317 10.0557 7.74775 10.1174 8.09741 10.3302C8.449 10.5404 8.66295 10.9013 8.73925 11.4129ZM13.2051 14.2233L12.6713 13.1004L10.8695 13.3691L10.6866 14.599L9.5575 14.7674L10.5617 9.54453L11.8429 9.35344L14.3342 14.0549L13.2051 14.2233ZM12.2901 12.2587C11.7998 11.2421 11.5228 10.6671 11.4591 10.5338C11.3977 10.4001 11.352 10.2941 11.3218 10.2156C11.2905 10.5152 11.1839 11.2603 11.0021 12.4508L12.2901 12.2587ZM17.6724 12.154C17.7389 12.6003 17.6302 12.9759 17.3463 13.2809C17.0646 13.5855 16.6375 13.7805 16.065 13.8659C15.5377 13.9446 15.0564 13.915 14.6211 13.7772L14.4759 12.8036C14.8316 12.9026 15.129 12.9653 15.3679 12.9919C15.6091 13.0181 15.8255 13.017 16.0171 12.9884C16.247 12.9541 16.4162 12.8839 16.5248 12.7779C16.6357 12.6715 16.6781 12.5315 16.6522 12.358C16.6378 12.2611 16.598 12.1795 16.5328 12.1132C16.4673 12.0446 16.3763 11.9833 16.26 11.9292C16.1459 11.8748 15.9163 11.795 15.5712 11.6899C15.248 11.5929 15.0011 11.4904 14.8307 11.3822C14.6602 11.274 14.5169 11.1398 14.4009 10.9797C14.2848 10.8196 14.2095 10.6235 14.1749 10.3914C14.1097 9.95417 14.206 9.58847 14.464 9.29427C14.7241 8.99974 15.1157 8.81348 15.6385 8.73549C15.8954 8.69717 16.1445 8.69113 16.3857 8.71736C16.6292 8.74325 16.8865 8.79242 17.1576 8.86487L16.9411 9.73001C16.6613 9.66116 16.4314 9.61826 16.2515 9.60132C16.0738 9.58405 15.9016 9.58785 15.7348 9.61272C15.5365 9.6423 15.3912 9.71119 15.2991 9.8194C15.2069 9.9276 15.172 10.0561 15.1942 10.2048C15.2079 10.2972 15.2414 10.3752 15.2947 10.4386C15.3476 10.4999 15.4251 10.5563 15.5273 10.6078C15.6313 10.6568 15.8705 10.7387 16.2447 10.8533C16.7396 11.0053 17.0894 11.18 17.2939 11.3776C17.4982 11.5729 17.6243 11.8317 17.6724 12.154ZM21.4857 11.5853C21.5522 12.0315 21.4435 12.4071 21.1596 12.7121C20.8779 13.0168 20.4508 13.2118 19.8783 13.2972C19.351 13.3758 18.8697 13.3462 18.4344 13.2084L18.2892 12.2348C18.6449 12.3338 18.9423 12.3966 19.1812 12.4232C19.4224 12.4494 19.6388 12.4482 19.8304 12.4196C20.0603 12.3853 20.2295 12.3152 20.3381 12.2091C20.4489 12.1028 20.4914 11.9628 20.4655 11.7893C20.4511 11.6923 20.4113 11.6107 20.3461 11.5444C20.2806 11.4759 20.1896 11.4146 20.0733 11.3605C19.9592 11.3061 19.7296 11.2263 19.3844 11.1211C19.0613 11.0242 18.8144 10.9216 18.6439 10.8134C18.4734 10.7052 18.3302 10.5711 18.2142 10.411C18.0981 10.2509 18.0228 10.0548 17.9882 9.82265C17.923 9.38543 18.0193 9.01972 18.2772 8.72552C18.5374 8.43099 18.9289 8.24473 19.4518 8.16675C19.7087 8.12843 19.9578 8.12238 20.199 8.14861C20.4425 8.1745 20.6998 8.22367 20.9709 8.29612L20.7544 9.16126C20.4745 9.09241 20.2447 9.04952 20.0648 9.03258C19.8871 9.0153 19.7149 9.0191 19.5481 9.04398C19.3498 9.07356 19.2045 9.14245 19.1124 9.25065C19.0202 9.35885 18.9853 9.48732 19.0074 9.63607C19.0212 9.72847 19.0547 9.80641 19.108 9.86989C19.1609 9.93111 19.2384 9.98751 19.3406 10.0391C19.4446 10.0881 19.6838 10.1699 20.058 10.2846C20.5529 10.4365 20.9027 10.6113 21.1072 10.8089C21.3115 11.0042 21.4376 11.263 21.4857 11.5853Z" fill="white"/>
</svg>
