<svg id="Layer_1" data-name="Layer 1" xmlns="http://www.w3.org/2000/svg" viewBox="0 0 266.26 267.48">
  <defs>
    <style>
      .cls-1 {
        fill: #f9f7f7;
      }

      .cls-1, .cls-2, .cls-3 {
        stroke: #000;
        stroke-miterlimit: 10;
      }

      .cls-3 {
        fill: none;
        stroke-width: 2px;
      }

      .cls-4, .cls-5, .cls-6 {
        isolation: isolate;
      }

      .cls-4 {
        font-size: 58px;
        letter-spacing: -0.04em;
      }

      .cls-4, .cls-6 {
        font-family: Apple-Chancery, Apple Chancery;
      }

      .cls-6 {
        font-size: 63.57px;
        letter-spacing: -0.04em;
      }
    </style>
  </defs>
  <circle class="cls-1" cx="133.13" cy="133.13" r="132.63"/>
  <path class="cls-2" d="M63.72,115.09v1.77h3.53v1.77H71V116h5.11v3.74h5.5v-1.95h1.5v2.67h4.65v-2h.65v9.38L87,129.29l-.3.29v6.49H83.13v5.44l-4.19.59V139l-.68-.23-2.66-.88-1.27-.46v48.41l-9.71,3.24-13-1.63v-57l-.38-.3-3.16-2.46v-9.76h3.23v2.27l.93.07,1.85.12,1,0v-3.61h1.53V119h3.77v-2.17h1.9l0-1v-.72h1.49m1-1H61.18l.08,1.77H59.41V118H57.64v-2.17H54.13v3.61l-1.85-.13v-2.37H47v11.31L50.57,131v57.36l14.15,1.77,10.61-3.54V138.85l2.65.88v3.54l6.15-.84v-5.3h3.53v-7.07l1.77-1.77V117.43H86.82v2H84.13v-2.64h-3.5v1.95h-3.5V115H70v2.66H68.25v-1.77H64.72v-1.77Z"/>
  <polyline class="cls-3" points="64.72 190.13 64.72 127.73 62.95 124.7 62.95 114.09"/>
  <polyline class="cls-3" points="47.03 128.24 62.95 124.7 89.47 126.47"/>
  <polyline class="cls-3" points="49.05 129.81 64.72 127.73 87.71 130"/>
  <polyline class="cls-3" points="55.77 115.76 69.44 102.09 83.69 116.34"/>
  <polyline class="cls-3" points="108.93 186.59 77.1 186.59 75.33 186.59 75.33 138.85 78.86 138.85 78.86 142.38 84.17 142.38 84.17 137.08 89.47 137.08 89.47 138.87 94.78 138.85 94.78 135.31 100.14 135.31 100.08 137.08 103.62 137.08 103.62 133.13 110.69 133.54 112.02 134.02"/>
  <line class="cls-3" x1="75.33" y1="153.73" x2="111.71" y2="147.71"/>
  <line class="cls-3" x1="75.33" y1="155.55" x2="111.57" y2="149.68"/>
  <path d="M80.33,154.74l-1.59.26s-.12,3.8,0,3.8h0a3.78,3.78,0,0,0,1,.2.73.73,0,0,0,.55-.17v-4.06Z"/>
  <path d="M88.59,153.55l-1.59.26s-.12,3.8,0,3.8h0a3.78,3.78,0,0,0,1,.2.73.73,0,0,0,.55-.17v-4.06Z"/>
  <path d="M95.66,151.78l-1.59.26s-.11,3.8,0,3.8h0a3.78,3.78,0,0,0,1,.2.73.73,0,0,0,.55-.17v-4.06Z"/>
  <path d="M108,150.34h-1.77a33.44,33.44,0,0,0,.16,4h0a3.78,3.78,0,0,0,1,.2.73.73,0,0,0,.55-.17v-4.06Z"/>
  <path d="M101.51,151.31l-1.61.26v3.13a.72.72,0,0,0,.58.37,1.35,1.35,0,0,0,.9-.5Z"/>
  <path d="M56.93,156.43v4.12h-.16v-4l.16-.09m.18-1a2.52,2.52,0,0,0-1.34.62v5.55h2.16v-5.55a.86.86,0,0,0-.8-.65Z"/>
  <path d="M57.13,173.14v6.29H57v-6.2l.16-.09m.18-1a2.52,2.52,0,0,0-1.34.62v7.72h2.16v-7.69a.88.88,0,0,0-.82-.62Z"/>
  <path d="M57.13,136.76v5.51H57v-5.39l.16-.12m.18-1.1c-.64,0-1.34.81-1.34.81v6.8h2.16v-6.84c-.2-.61-.5-.82-.82-.81Z"/>
  <path class="cls-2" d="M147.13,95.43v5.19h.73l3.53.09h.78V98.33l3.8,2.06v10a4.87,4.87,0,0,1-1.55,3.1l-.23.23v.32l1.76,74a16.41,16.41,0,0,1-4.25,2.27c-2.95,1.14-8.16,2.49-16.24,2.49A102.22,102.22,0,0,1,118,191.16c-4.25-1.71-8-3.79-8.29-4.59l4.41-75.1v-.27L114,111l-1.46-2,1-10.13,3.56-1.37v3.23h6.8V97.18h7.26V99h6.81V95.43h9.19m.75-.75H137.22v3.54h-5.31V96.43h-8.84V100h-5.3V96.43l-5,1.92-1,10.88,1.64,2.23L109,186.61c0,1.77,8.85,5.31,8.85,5.31a101.47,101.47,0,0,0,17.65,1.7c16,0,21.25-5.17,21.25-5.17L155,114.11a5.61,5.61,0,0,0,1.77-3.63V99.94l-5.3-2.87v2.87l-3.54-.09V94.68Z"/>
  <path class="cls-3" d="M111.71,109.21s34.35-7.68,45,1.25"/>
  <path class="cls-3" d="M113.35,111.43s34.48-8,41.55,2.65"/>
  <path d="M134.38,118a2,2,0,0,1,.36.29l.2.2c.16.42.57,2,.25,6.94h-1.45c-.17-3.47.11-6.71.64-7.43m-.06-1.05c-2.2,0-1.52,9.48-1.52,9.48h3.33c.67-8.84-.67-8.84-.67-8.84a1.74,1.74,0,0,0-1.13-.64Z"/>
  <path d="M133.52,150.32c.16,0,.43.31.59.62v7h-1.54V151c.59-.72.91-.74,1-.74m0-1c-.53,0-1.18.35-2,1.4v8.25h3.56v-8.25s-.55-1.4-1.59-1.4Z"/>
  <path class="cls-2" d="M158.28,134.79v3.64h5.24v-2.35h3.69v3.31h4.64V137.1h5.28v3.26h3.43l-1.64,43.76-22.4.83-.4-50.14h2.15m.75-.75h-3.65l.41,51.67,23.87-.89,1.77-47.28h-1.15v2h-2.39v-3.23h-6.75v2.29H168v-3.31H162.8v2.35H159v-3.6Z"/>
  <path class="cls-2" d="M201.9,123.75v63.74l-21.47-3.31,1.7-58.75,19.74-1.64m.75-.82-21.22,1.77-1.77,60.12,23,3.54V123Z"/>
  <path class="cls-2" d="M203.4,125.78,216,130.52v51.91l-12.64,3.16V125.78m-.75-1.08v61.89l14.14-3.53v-53l-14.14-5.31Z"/>
  <path class="cls-2" d="M204.13,115.54v.71h3.07v3.9h3.27v-1.72l3,.35v3.66h3.22v-2l1.15.35v7.36a.93.93,0,0,1-.86,1h0l-13.31-5.07v-8.64h.5m.75-.75h-2v9.91l13.94,5.31a1.72,1.72,0,0,0,1.77-1.69v-7.89l-2.65-.82v2.22h-1.72v-3.57l-4.47-.53v1.8H208v-3.9h-3.07v-.71Z"/>
  <path class="cls-2" d="M203.85,115.54l-.17,8.45-23.27,1.2V117.9h4.19v1.53h4.65v-3.68h4.62V118h5.18v-2.41h4.8m.77-.75H198.3v2.41h-3.68V115H188.5v3.68h-3.15V117.2h-5.69V126l24.76-1.28Z"/>
  <polyline class="cls-3" points="184.57 118.76 200.88 105.25 214.39 118.76 215.03 119.4 215.96 119.93"/>
  <line class="cls-3" x1="156.18" y1="150.34" x2="180.62" y2="153.18"/>
  <path d="M162.06,150.86c-1.58,0-1,4.69-1,4.69h1.5c.62-1,.3-4.36.3-4.36a1.51,1.51,0,0,0-.84-.33Z"/>
  <path d="M158.24,151c-1,0-.61,4.69-.61,4.69h1c.4-1,.2-4.36.2-4.36A.8.8,0,0,0,158.24,151Z"/>
  <path d="M166.75,151c-1.57,0-1,4.69-1,4.69h1.5c.62-1,.3-4.36.3-4.36a1.51,1.51,0,0,0-.84-.33Z"/>
  <path d="M177.4,152.73c-1.57,0-1,4.68-1,4.68h1.49c.62-1,.3-4.35.3-4.35a1.51,1.51,0,0,0-.84-.33Z"/>
  <path d="M173.23,152.73h-1.74v3.53a1.14,1.14,0,0,0,.7.28.84.84,0,0,0,.63-.28Z"/>
  <path d="M191.72,135.11v5.51h-.16v-5.39l.16-.12m.18-1.11c-.64,0-1.34.81-1.34.81v6.81h2.16v-6.81C192.52,134.21,192.22,134,191.9,134Z"/>
  <path d="M191.72,152.79v5.51h-.16v-5.38l.16-.13m.18-1.1c-.64,0-1.34.81-1.34.81v6.8h2.16v-6.8C192.52,151.89,192.22,151.69,191.9,151.69Z"/>
  <path d="M191.72,172.24v5.51h-.16v-5.38l.16-.13m.18-1.1c-.64,0-1.34.81-1.34.81v6.8h2.16V172C192.52,171.34,192.22,171.14,191.9,171.14Z"/>
  <path class="cls-3" d="M130.76,69.59s-3,1.42-2.69,2.62"/>
  <line class="cls-3" x1="155.72" y1="147.69" x2="180.68" y2="151.19"/>
  <path class="cls-2" d="M78.82,87.78h0a13,13,0,0,1,3.87.48v.55l-3.75,2.62-.44.3v18l-6.12-6.12.39-15.18a35.59,35.59,0,0,1,6-.61m0-1a36.62,36.62,0,0,0-7,.79l-.42,16.45,8.13,8.13v-20l4.19-2.89V87.57a12.65,12.65,0,0,0-4.87-.79Z"/>
  <polyline class="cls-3" points="71.79 87.57 77.53 72.54 83.69 87.57"/>
  <line class="cls-3" x1="77.53" y1="72.55" x2="77.53" y2="66.05"/>
  <polyline class="cls-3" points="95.66 138.25 95.66 89.15 95.66 81.39 80.63 91.1 91.24 89.33 95.66 88.01"/>
  <path class="cls-2" d="M101.7,70.43l2.69,6.71v1.09h-7l4.34-7.8m.15-2.33L95.69,79.23h9.73V77Z"/>
  <line class="cls-3" x1="95.66" y1="79.24" x2="95.66" y2="83.95"/>
  <line class="cls-3" x1="101.85" y1="69.88" x2="101.85" y2="65.02"/>
  <line class="cls-3" x1="105.39" y1="79.24" x2="105.35" y2="133.13"/>
  <path class="cls-2" d="M111.63,73.59l15.44,1v14l-20.68-1.23V85.7l5.24-12.11m-.64-1-5.6,12.94v2.81l22.68,1.35v-16L111,72.56Z"/>
  <line class="cls-3" x1="110.99" y1="72.55" x2="105.39" y2="75.6"/>
  <path class="cls-3" d="M128.07,95.48V70.62s-5-4.27,3.84-4.27c0,0,26.53-1.77,30.07,1.76,0,0,1.76,1.77-1.77,1.77,0,0-28.3-1.77-30.06,0"/>
  <polyline class="cls-3" points="131.91 66.35 146.06 34.52 159.62 67.01"/>
  <line class="cls-3" x1="146.06" y1="34.52" x2="146.06" y2="27.55"/>
  <line class="cls-3" x1="160.21" y1="69.88" x2="160.21" y2="137.01"/>
  <path class="cls-3" d="M166.67,134V121.73s5.11-1.2,9.05,0v14.6"/>
  <path class="cls-2" d="M171.05,112.23l3.08,8.2a19.85,19.85,0,0,0-2.44-.14,23.77,23.77,0,0,0-5.18.58v-.11l4.46-8.57m.15-2.44-5.45,10.68-.75,2a21.6,21.6,0,0,1,6.81-1.07,20,20,0,0,1,4,.4l-4.52-11.94Z"/>
  <line class="cls-3" x1="171.2" y1="109.79" x2="171.2" y2="104.17"/>
  <path class="cls-2" d="M161.84,82.21,171,92.8h-9.78l.58-10.59M161,79.69l-.77,14.11h13L161,79.69Z"/>
  <path class="cls-3" d="M183.07,116.77l.13-29.2c3.53,0,0-1.77,0-1.77h-8.85c-3.53,0-1.12.94-1.12.94V93.8l.35,22.29"/>
  <path class="cls-2" d="M178.51,74.67l3.31,10.14h-7.26l3.95-10.18m.09-3-5.37,13.8-.16.36,10.13-.06Z"/>
  <line class="cls-3" x1="178.6" y1="73.47" x2="178.6" y2="69.88"/>
  <text class="cls-4" transform="translate(59.72 59.43)">M</text>
  <g class="cls-5">
    <text class="cls-6" transform="translate(162.73 237.93)">A</text>
  </g>
</svg>
